<?xml version="1.0" encoding="UTF-8" standalone="no"?>
<svg width="60px" height="60px" viewBox="0 0 60 60" version="1.1" xmlns="http://www.w3.org/2000/svg" xmlns:xlink="http://www.w3.org/1999/xlink" xmlns:sketch="http://www.bohemiancoding.com/sketch/ns">
    <!-- Generator: Sketch 3.2.2 (9983) - http://www.bohemiancoding.com/sketch -->
    <title>Parachute</title>
    <desc>Created with Sketch.</desc>
    <defs></defs>
    <g id="outlined" stroke="none" stroke-width="1" fill="none" fill-rule="evenodd" sketch:type="MSPage">
        <g id="Activities_sliced" sketch:type="MSLayerGroup" transform="translate(-360.000000, -960.000000)"></g>
        <g id="Activities" sketch:type="MSLayerGroup" transform="translate(-374.000000, -961.000000)" stroke="#535353" stroke-width="2" stroke-linecap="round" stroke-linejoin="round">
            <g id="Parachute" transform="translate(380.000000, 965.000000)" sketch:type="MSShapeGroup">
                <path d="M48,24 C48,10.745166 37.254834,0 24,0 C10.745166,0 0,10.745166 0,24 C0,20.6862915 2.6862915,18 6,18 C9.3137085,18 12,20.6862915 12,24 L12,24 C12,20.6862915 14.6862915,18 18,18 C21.3137085,18 24,20.6862915 24,24 C24,20.6862915 26.6862915,18 30,18 C33.3137085,18 36,20.6862915 36,24 C36,20.6862915 38.6862915,18 42,18 C45.3137085,18 48,20.6862915 48,24 Z" id="Oval-1022"></path>
                <circle id="Oval-1026" cx="24.5" cy="46.5" r="2.5"></circle>
                <path d="M27,52 L31,48" id="Line"></path>
                <path d="M18,52 L22,48" id="Line-280" transform="translate(20.000000, 50.000000) scale(-1, 1) translate(-20.000000, -50.000000) "></path>
                <path d="M2.00000001,27 L19.2173745,43.2692779" id="Path-2429"></path>
                <path d="M29.2883044,27 L46.5056789,43.2692779" id="Path-2429" transform="translate(38.000000, 35.028512) scale(-1, 1) translate(-38.000000, -35.028512) "></path>
                <path d="M12.6258957,26.3556054 L22.2108584,40.8520585" id="Path-2431"></path>
                <path d="M26.5,26.3556054 L36.0849626,40.8520585" id="Path-2431" transform="translate(31.292481, 33.603832) scale(-1, 1) translate(-31.292481, -33.603832) "></path>
                <path d="M23.9911083,22.9999973 L23.9911083,37.7549954" id="Path-2433"></path>
            </g>
        </g>
    </g>
</svg>