<?xml version="1.0" encoding="UTF-8" standalone="no"?>
<svg width="60px" height="60px" viewBox="0 0 60 60" version="1.1" xmlns="http://www.w3.org/2000/svg" xmlns:xlink="http://www.w3.org/1999/xlink" xmlns:sketch="http://www.bohemiancoding.com/sketch/ns">
    <!-- Generator: Sketch 3.2.2 (9983) - http://www.bohemiancoding.com/sketch -->
    <title>Umbrella</title>
    <desc>Created with Sketch.</desc>
    <defs></defs>
    <g id="outlined" stroke="none" stroke-width="1" fill="none" fill-rule="evenodd" sketch:type="MSPage">
        <g id="Activities_sliced" sketch:type="MSLayerGroup" transform="translate(-240.000000, 0.000000)"></g>
        <g id="Activities" sketch:type="MSLayerGroup" transform="translate(-254.000000, -1.000000)" stroke="#535353" stroke-width="2" stroke-linejoin="round">
            <g id="Umbrella" transform="translate(260.000000, 5.000000)" sketch:type="MSShapeGroup">
                <path d="M12.9170416,31 C12.4409635,33.8377133 9.97299629,36 7,36 C4.02700371,36 1.55903653,33.8377133 1.08295844,31 L1,31 L1,24 L49,24 L49,31 L48.9170416,31 C48.4409635,33.8377133 45.9729963,36 43,36 C40.0270037,36 37.5590365,33.8377133 37.0829584,31 L36.9170416,31 C36.4409635,33.8377133 33.9729963,36 31,36 C28.0270037,36 25.5590365,33.8377133 25.0829584,31 L24.9170416,31 C24.4409635,33.8377133 21.9729963,36 19,36 C16.0270037,36 13.5590365,33.8377133 13.0829584,31 L12.9170416,31 Z" id="Oval-800" stroke-linecap="round"></path>
                <polygon id="Triangle-27" stroke-linecap="round" points="25 4 50 24 0 24 "></polygon>
                <path d="M25,4 L25,0" id="Line" stroke-linecap="square"></path>
                <path d="M23,39 L23,54" id="Line" stroke-linecap="square"></path>
                <path d="M27,39 L27,54" id="Line" stroke-linecap="square"></path>
            </g>
        </g>
    </g>
</svg>